<svg width="4" height="18" viewBox="0 0 4 18" fill="none" xmlns="http://www.w3.org/2000/svg">
<path d="M3.67483 2.29459C3.67483 1.37376 2.92866 0.62793 2.00816 0.62793C1.08766 0.62793 0.341492 1.37376 0.341492 2.29459C0.341492 3.21542 1.08766 3.96125 2.00816 3.96125C2.92866 3.96125 3.67483 3.21542 3.67483 2.29459ZM3.67483 8.96124C3.67483 8.04041 2.92866 7.29458 2.00816 7.29458C1.08766 7.29458 0.341492 8.04041 0.341492 8.96124C0.341492 9.88207 1.08766 10.6279 2.00816 10.6279C2.92866 10.6279 3.67483 9.88207 3.67483 8.96124ZM3.67483 15.6279C3.67483 14.7071 2.92866 13.9612 2.00816 13.9612C1.08766 13.9612 0.341492 14.7071 0.341492 15.6279C0.341492 16.5487 1.08766 17.2945 2.00816 17.2945C2.92866 17.2945 3.67483 16.5487 3.67483 15.6279Z" fill="#28334A"/>
</svg>
